<?xml version="1.0" encoding="utf-8"?>
<!-- Generator: Adobe Illustrator 22.0.1, SVG Export Plug-In . SVG Version: 6.00 Build 0)  -->
<svg version="1.1" id="Слой_1" xmlns="http://www.w3.org/2000/svg" xmlns:xlink="http://www.w3.org/1999/xlink" x="0px" y="0px"
	 viewBox="0 0 400 400" style="enable-background:new 0 0 400 400;" xml:space="preserve">
<style type="text/css">
	.st0{fill:#90A4AE;}
	.st1{opacity:0.59;fill:#C6C6C6;enable-background:new    ;}
	.st2{fill:#EFEFEF;}
	.st3{fill:#BF3C3C;}
	.st4{opacity:0.38;fill:#1E1D1D;enable-background:new    ;}
	.st5{opacity:0.75;fill:#C6C6C6;enable-background:new    ;}
	.st6{fill:#F6C5A0;}
	.st7{fill:#E5A57A;}
	.st8{fill:#DBA682;}
	.st9{fill:#C17948;}
	.st10{fill:#E5E1E1;}
	.st11{fill:#FFFFFF;}
	.st12{fill:#512F18;}
	.st13{fill:#160B04;}
	.st14{fill:#0C0400;}
	.st15{opacity:0.84;fill:#C6C6C6;enable-background:new    ;}
	.st16{fill:#FCECE3;}
	.st17{opacity:0.38;fill:#FFFFFF;enable-background:new    ;}
	.st18{fill:#1E1E1E;}
	.st19{opacity:0.3;fill:#FFFFFF;enable-background:new    ;}
	.st20{fill:#2B2826;}
	.st21{fill:#323232;}
	.st22{fill:#1E1D1D;}
</style>
<rect class="st0" width="400" height="400"/>
<g>
	<path class="st1" d="M270.9,119.8c-9.2,9.2-35.4,15.9-66.2,15.9c-30.7,0-56.7-6.6-66.1-15.8c0.4-3.8,1-7.4,1.7-11
		c12.2,9.3,36.4,15.6,64.4,15.6c28,0,52.3-6.4,64.5-15.7C269.9,112.4,270.5,116.1,270.9,119.8z"/>
	<path class="st2" d="M372,408.7H37.5c7.4-35.2,14.4-76.3,26.3-91.4c0.9-1.1,1.8-2.1,2.7-2.9c8.3-7.3,28.4-23,92.5-51.9
		c0.9-0.4,1.8-0.8,2.8-1.3c3.1-1.4,6.3-2.8,9.7-4.3l3.6,0.1l59.6,0.4l4.5,0.1c3.8,1.7,7.5,3.3,11,4.9c65.1,29.2,84.7,44.7,93,52.1
		C356.6,326.3,364,370.9,372,408.7z"/>
	<polygon class="st3" points="224.3,408.7 185.1,408.7 193.1,317.7 186.2,307.4 204.9,292 205,292.2 223.2,307.4 216.3,317.7 	"/>
	<path class="st4" d="M223.2,307.4l-7,10.3l-6.8,4.5c-2.9,1.9-6.7,1.9-9.6,0l-6.8-4.5l-7-10.3l18.8-15.4L223.2,307.4z"/>
	<polygon class="st4" points="205,292.2 205,408.7 185.1,408.7 193.1,317.7 186.2,307.4 204.9,292 	"/>
	<path class="st5" d="M174.9,256.9h-3.6c-4.3,1.9-8.5,3.8-12.4,5.5l9.5,59.8l36.7-32.6L174.9,256.9z"/>
	<path class="st5" d="M239,257.3h-4.5l-29.5,32.4l36.1,33.2l8.9-60.7C246.5,260.6,242.8,259,239,257.3z"/>
	<path class="st6" d="M240.6,192.3v82c-0.2,0.3-0.5,0.6-0.7,0.9c-19.7,23.2-51.4,22.2-70.9-0.7c-0.1-0.1-0.1-0.2-0.2-0.2v-82
		C168.8,148,240.6,148,240.6,192.3z"/>
	<path class="st7" d="M240.6,238.1v31.4l-0.7,5.6c-19.7,23.2-51.4,22.2-70.9-0.7l-0.2-1.4v-34.9l36.1,44.9L240.6,238.1z"/>
	<path class="st8" d="M131.8,151c5.7-1.8,12.8,4.6,16.1,14.3c3.2,9.8,1.3,19.2-4.4,21.1c-5.7,1.8-12.8-4.6-16.1-14.3
		C124.2,162.3,126.2,152.8,131.8,151z"/>
	<path class="st9" d="M140.1,155.8c5.8,0.2,11.6,6.3,13.1,13.4c1.5,7.1-2.1,12.7-7.9,12.5c-5.8-0.3-11.6-6.3-13.1-13.4
		C130.7,161.1,134.3,155.6,140.1,155.8z"/>
	<path class="st8" d="M277.3,151c-5.7-1.8-12.9,4.6-16.1,14.3c-3.2,9.8-1.3,19.2,4.4,21.1c5.7,1.8,12.9-4.6,16.1-14.3
		C284.9,162.3,283,152.8,277.3,151z"/>
	<path class="st9" d="M269.2,155.8c-5.8,0.2-11.6,6.3-13.1,13.4c-1.5,7.1,2.1,12.7,7.9,12.5c5.8-0.3,11.6-6.3,13.1-13.4
		C278.5,161.1,274.9,155.6,269.2,155.8z"/>
	<path class="st10" d="M168.8,247.2l-3.2,12.2l8.8,63.6l30.4-30.9L168.8,247.2z"/>
	<path class="st5" d="M172.6,232.6v2.3c0,0,16.4,19.5,32.1,20.2c15.7,0.7,32.2-18.9,32.2-18.9v-3.6"/>
	<path class="st10" d="M240.6,247.2l2.5,12l-8.3,64.4L204.9,292L240.6,247.2z"/>
	<path class="st6" d="M259.2,211.2c-7.1,11.4-38.5,36.6-54.5,36.6c-5.2,0-12.1-2.7-19.3-6.7l0,0c-14.7-8.3-30.4-22.2-35.2-29.9
		c-2.2-3.6-8.3-25.1-11.1-50.2c-0.9-7.9-1.4-16.3-1.4-24.5c0-5.6,0.3-11.1,0.8-16.5c0.3-2.7,0.7-5.4,1.1-8c0.1-0.5,0.2-0.9,0.3-1.4
		c0.1-0.5,0.2-1,0.3-1.6c0.1,0.1,0.1,0.1,0.2,0.1c2.8,2.1,15.5-21,19.4-19.3c13.3,6,24-13.1,45.5-13.1c28,0,51.6,41.5,63.7,32.2
		c0.8,3.5,1.3,7.2,1.7,11C275,158.1,262.7,205.6,259.2,211.2z"/>
	<g>
		<g>
			<path class="st1" d="M222.1,163.4c0,0,3.5,5.2,13.3,5.2c9.8,0,15.8-8.7,15.8-8.7S223.7,158.2,222.1,163.4z"/>
			<g>
				<g>
					<path class="st11" d="M219.3,163c0.2-0.2,0.4-0.5,0.8-0.5c3.6-5.3,7.6-7.7,13.3-7.7c4.8,0,14.1,0.5,17.7,5.1
						c0,0-5.5,4.6-14.1,4.6c-8.5,0-14.9-1.1-14.9-1.1l-4.2,0.9L219.3,163z"/>
				</g>
				<path class="st12" d="M241.6,159.9c-0.1,1.7-0.7,3.3-1.8,4.6c-0.5,0.1-1.1,0.1-1.7,0.2l0,0c-0.4,0-0.8,0.1-1.2,0.1
					c-0.5,0-1,0-1.6,0c-0.1,0-0.2,0-0.3,0c-0.1,0-0.2,0-0.3,0c-0.5,0-1.1,0-1.6-0.1c-0.4,0-0.8-0.1-1.1-0.1H232
					c-0.5,0-1-0.1-1.4-0.1l0,0c-0.5-0.1-1.1-0.1-1.6-0.1c-1-1.3-1.6-3-1.6-4.8c0.1-1.5,0.5-2.8,1.3-4c0.5-0.2,1.1-0.3,1.7-0.4l0,0
					c0.1,0,0.2,0,0.2,0c0.3-0.1,0.6-0.1,0.9-0.1c0.1,0,0.3,0,0.4-0.1c0.4-0.1,0.9-0.1,1.4-0.1c0.1,0,0.2,0,0.3,0h0.5
					c0.1,0,0.3,0,0.4,0h0.1c0.1,0,0.2,0,0.3,0c0.1,0,0.2,0,0.3,0c0.2,0,0.3,0,0.4,0c0.1,0,0.1,0,0.2,0c0.3,0,0.7,0,1,0.1
					c0.1,0,0.2,0,0.2,0c0.2,0,0.3,0,0.5,0.1c0.1,0,0.2,0,0.3,0c0.2,0,0.3,0,0.4,0.1c0.1,0,0.1,0,0.1,0c0.5,0.1,1,0.1,1.6,0.2
					C241.2,156.5,241.7,158.1,241.6,159.9z"/>
				<path class="st13" d="M239.1,159.7c0,2.5-1.8,4.5-4.2,4.8c-0.5,0-1.1,0-1.6-0.1c-2.2-0.4-4-2.4-4-4.8c0-2.6,2-4.6,4.4-4.8
					c0.2,0,0.3,0,0.5,0c0.2,0,0.4,0,0.5,0.1C237.2,155.1,239.1,157.2,239.1,159.7z"/>
				<path d="M251,160c-3.9-3.8-10.3-4-15.1-4.3c-2.5-0.2-4.9-0.7-7.4,0c-2.4,0.7-7.3,3.6-7.8,7c-0.1,0.3-0.3,0.5-0.6,0.5
					c-0.3,0-0.5,0-0.7,0c-0.2,0.1-0.4-0.1-0.3-0.3c0.4-1.1,1.4-1.1,2.1-2.1c1-1.5,2.4-2.7,3.7-3.6c2.6-1.9,6.1-2.8,9.1-3
					c5.5-0.4,13.4,0.2,17.2,5.7C251.2,160,251.1,160.1,251,160L251,160z"/>
				<circle class="st11" cx="237.4" cy="158.9" r="2.1"/>
			</g>
			<path class="st14" d="M249.9,147.6c-1.6-1.9-3.2-3.3-5-4.6c-2.2-1.7-4.5-2.6-7.1-2c-2.3,0.5-4.5,1.8-6.7,2.8
				c-1.6,0.7-3.3,1.4-4.9,2c-0.9,0.3-2.1,1-3,1.4c-1,0.5-1.8,1.1-2.7,1.9c-0.3,0.3-0.6,0.6-0.8,0.9c-0.1,0.2-0.3,0.4-0.4,0.5
				c-0.7,1-1.3,2.6-1.3,2.6s7.7-2.4,10.9-3.4c1.6-0.5,3.2-1.1,4.8-1.6c5.3-1.7,11.5-2.8,16.5,1.4c0.1,0.1,0.3,0.2,0.4,0.3
				c0.2,0.2,0.3,0.3,0.5,0.4c0.3,0.3,0.5,0.5,0.8,0.8c0,0,0,0,0-0.1c0.5,0.5,0.9,0.9,0.9,0.9C252,150.3,250.8,148.7,249.9,147.6z"/>
			<path class="st15" d="M218,160.9c0.9-2.4,2.5-4.5,4.4-6.1c1.9-1.7,4.2-3,6.6-3.9c1.3-0.3,2.5-0.8,3.8-0.9
				c0.7-0.1,1.3-0.2,1.9-0.2c0.7,0,1.3,0,1.9,0c0.7,0,1.3,0.1,1.9,0.2l1.9,0.3c1.3,0.3,2.4,0.6,3.6,1c-1.3,0-2.5-0.1-3.8-0.1
				l-1.8,0.1c-0.3,0-0.6,0-0.9,0c-0.3,0-0.6,0.1-0.9,0.1c-0.6,0.1-1.2,0.1-1.8,0.2c-0.3,0-0.6,0.1-0.9,0.2l-0.9,0.2
				c-0.6,0.1-1.2,0.2-1.7,0.4c-0.6,0.2-1.1,0.3-1.7,0.5l-1.7,0.7c-0.5,0.2-1.1,0.5-1.6,0.8s-1,0.6-1.6,0.9c-0.5,0.3-1,0.7-1.5,1
				C221.3,157.3,219.5,158.9,218,160.9z"/>
		</g>
		<g>
			<path class="st1" d="M187.3,163.4c0,0-3.5,5.2-13.3,5.2c-9.8,0-15.8-8.7-15.8-8.7S185.7,158.2,187.3,163.4z"/>
			<g>
				<g>
					<path class="st11" d="M190.1,163c-0.2-0.2-0.4-0.5-0.8-0.5c-3.6-5.3-7.6-7.7-13.3-7.7c-4.8,0-14.1,0.5-17.7,5.1
						c0,0,5.5,4.6,14.1,4.6s14.9-1.1,14.9-1.1l4.2,0.9L190.1,163z"/>
				</g>
				<path class="st12" d="M167.8,159.9c0.1,1.7,0.7,3.3,1.8,4.6c0.5,0.1,1.1,0.1,1.7,0.2l0,0c0.4,0,0.8,0.1,1.2,0.1c0.5,0,1,0,1.6,0
					c0.1,0,0.2,0,0.3,0s0.2,0,0.3,0c0.5,0,1.1,0,1.6-0.1c0.4,0,0.8-0.1,1.1-0.1h0.1c0.5,0,1-0.1,1.4-0.1l0,0
					c0.5-0.1,1.1-0.1,1.6-0.1c1-1.3,1.6-3,1.6-4.8c-0.1-1.5-0.5-2.8-1.3-4c-0.5-0.2-1.1-0.3-1.7-0.4l0,0c-0.1,0-0.2,0-0.2,0
					c-0.3-0.1-0.6-0.1-0.9-0.1c-0.1,0-0.3,0-0.4-0.1c-0.4-0.1-0.9-0.1-1.4-0.1c-0.1,0-0.2,0-0.3,0h-0.5c-0.1,0-0.3,0-0.4,0h-0.1
					c-0.1,0-0.2,0-0.3,0c-0.1,0-0.2,0-0.3,0c-0.2,0-0.3,0-0.4,0c-0.1,0-0.1,0-0.2,0c-0.3,0-0.7,0-1,0.1c-0.1,0-0.2,0-0.2,0
					c-0.2,0-0.3,0-0.5,0.1c-0.1,0-0.2,0-0.3,0c-0.2,0-0.3,0-0.4,0.1c-0.1,0-0.1,0-0.1,0c-0.5,0.1-1,0.1-1.6,0.2
					C168.2,156.5,167.7,158.1,167.8,159.9z"/>
				<path class="st13" d="M170.3,159.7c0,2.5,1.8,4.5,4.2,4.8c0.5,0,1.1,0,1.6-0.1c2.2-0.4,4-2.4,4-4.8c0-2.6-2-4.6-4.4-4.8
					c-0.2,0-0.3,0-0.5,0c-0.2,0-0.4,0-0.5,0.1C172.2,155.1,170.3,157.2,170.3,159.7z"/>
				<path d="M158.4,160c3.9-3.8,10.3-4,15.1-4.3c2.5-0.2,4.9-0.7,7.4,0s7.3,3.6,7.8,7c0.1,0.3,0.3,0.5,0.6,0.5c0.3,0,0.5,0,0.7,0
					c0.2,0.1,0.4-0.1,0.3-0.3c-0.4-1.1-1.4-1.1-2.1-2.1c-1-1.5-2.4-2.7-3.7-3.6c-2.6-1.9-6.1-2.8-9.1-3c-5.5-0.4-13.4,0.2-17.2,5.7
					C158.2,160,158.3,160.1,158.4,160L158.4,160z"/>
				<circle class="st11" cx="172" cy="158.9" r="2.1"/>
			</g>
			<path class="st14" d="M159.5,147.6c1.6-1.9,3.2-3.3,5-4.6c2.2-1.7,4.5-2.6,7.1-2c2.3,0.5,4.5,1.8,6.7,2.8c1.6,0.7,3.3,1.4,4.9,2
				c0.9,0.3,2.1,1,3,1.4c1,0.5,1.8,1.1,2.7,1.9c0.3,0.3,0.6,0.6,0.8,0.9c0.1,0.2,0.3,0.4,0.4,0.5c0.7,1,1.3,2.6,1.3,2.6
				s-7.7-2.4-10.9-3.4c-1.6-0.5-3.2-1.1-4.8-1.6c-5.3-1.7-11.5-2.8-16.5,1.4c-0.1,0.1-0.3,0.2-0.4,0.3c-0.2,0.2-0.3,0.3-0.5,0.4
				c-0.3,0.3-0.5,0.5-0.8,0.8c0,0,0,0,0-0.1c-0.5,0.5-0.9,0.9-0.9,0.9C157.4,150.3,158.6,148.7,159.5,147.6z"/>
			<path class="st15" d="M191.4,160.9c-0.9-2.4-2.5-4.5-4.4-6.1c-1.9-1.7-4.2-3-6.6-3.9c-1.3-0.3-2.5-0.8-3.8-0.9
				c-0.7-0.1-1.3-0.2-1.9-0.2s-1.3,0-1.9,0c-0.7,0-1.3,0.1-1.9,0.2l-1.9,0.3c-1.3,0.3-2.4,0.6-3.6,1c1.3,0,2.5-0.1,3.8-0.1l1.8,0.1
				c0.3,0,0.6,0,0.9,0c0.3,0,0.6,0.1,0.9,0.1c0.6,0.1,1.2,0.1,1.8,0.2c0.3,0,0.6,0.1,0.9,0.2l0.9,0.2c0.6,0.1,1.2,0.2,1.7,0.4
				c0.6,0.2,1.1,0.3,1.7,0.5l1.7,0.7c0.5,0.2,1.1,0.5,1.6,0.8s1,0.6,1.6,0.9c0.5,0.3,1,0.7,1.5,1
				C188.1,157.3,189.9,158.9,191.4,160.9z"/>
		</g>
	</g>
	<g>
		<path class="st12" d="M203.2,190.3c3.7-0.1,7.1-0.8,10.6-1.5c0.1-0.1,0.1-0.1,0.1-0.1c0.3-0.3-6.3,0.4-9.3,0.8
			c-2.8,0.3-5.5-1.2-8.3-1.6c0.8-6.5,3.8-23.2,4.5-27.4c0,0,0,0,0,0.1c-1.3,2.5-1.7,4.9-2.3,7.6c-0.5,2.1-3.5,16.6-4.2,19
			c-0.3,1.1,1.7,1.8,1.8,1.7c4,3,5,3.5,8.3,3.8c2.7,0.3,4.6,0.8,7.8-2.2c-1.7,1-2.9,2.1-9,1.1c-0.5-0.1-4-1.4-4-1.7
			C199.3,189.5,202.9,190.3,203.2,190.3z"/>
		<path class="st16" d="M202,161.7c-1.5,7.8-4.8,16.6-3.9,24.6c0.1,1.1,3.9,1.8,3.9,0.7c0-8-0.1-17.3,0.5-25.2
			C202.6,161.4,202,161.4,202,161.7z"/>
		<path class="st1" d="M215.3,188.2c-3.2,0.7-7.9,1.4-11.1,1.3c-2.9-0.1-3.8-0.6-6.6-1.3c-0.6-0.2-1.2-0.3-1.8-0.3
			c0.3,0.4,0.7,0.8,0.9,1.2c-0.2-0.3-0.4-0.5-0.7-0.8c-0.6-0.4-1.2-0.8-1.8-1.2c0,0,5.7,10.9,10.4,10.9
			C209.4,197.9,215,188.7,215.3,188.2c-0.1,0.1-0.3,0.2-0.4,0.3C215.1,188.4,215.2,188.3,215.3,188.2L215.3,188.2z M209.5,191.5
			c0.3-0.1,0.5-0.2,0.8-0.3C210,191.4,209.8,191.5,209.5,191.5z M214.4,188.9c0.1-0.1,0.2-0.1,0.3-0.2
			C214.5,188.8,214.4,188.8,214.4,188.9z M211.6,190.6c0.1-0.1,0.2-0.1,0.2-0.1C211.8,190.6,211.7,190.6,211.6,190.6z M212.3,190.2
			c0.1-0.1,0.2-0.1,0.3-0.2C212.5,190.2,212.4,190.2,212.3,190.2z M213.1,189.8c0.1,0,0.1-0.1,0.1-0.1
			C213.2,189.7,213.2,189.7,213.1,189.8z"/>
	</g>
	<path class="st17" d="M188.9,178.3c-0.6,0.7-1.3,1.3-1.9,1.9c-2.6,2.3-5.5,4-8.6,4.9c-4.8,1.5-10.1,1.5-15.2-0.4
		c-9.3-3.4-11.8-11.6-13.1-16.9c-1.3-5.3-1.9-14.6,2.7-18.4c0.6-0.5,1.3-0.9,2-1.3c2.9-1.5,6.8-2.1,10.3-2.3
		c2.4-0.2,4.6-0.2,6.3-0.3c4.9-0.2,19.5,1.3,23.3,7.5C198.3,159.3,195.2,171.3,188.9,178.3z"/>
	<path class="st18" d="M262.1,146.6c-2.4-0.3-13.6-3.3-20.4-3.3c-10.7,0-14.6,0.9-19.6,2.3c-5,1.5-7.8,3.5-9.3,3.3
		c-1.5-0.2-5.4-0.9-7.9-0.9c-2.5,0-6.5,0.7-7.9,0.9c-1.5,0.2-4.3-1.8-9.3-3.3c-5-1.5-9-2.3-19.6-2.3c-6.8,0-18.2,3-20.5,3.3
		c-2.4,0.3-4.7,0.5-4.7,0.5v5.5c0,0,2.2,0.2,2.7,2.5s0.9,12.2,3.4,18.3c2.8,6.8,7.4,11.9,15.2,14.1c7.8,2.2,16.1,0.6,21.5-3
		c4-2.7,7.7-6.7,10.5-12.4c3.6-7.2,4.6-13.5,4.6-13.5s-1.5-1.6-0.7-3.9c0.7-1.7,2.7-2,4.8-2s4.1,0.3,4.8,2c0.8,2.3-0.7,3.9-0.7,3.9
		s1,6.3,4.6,13.5c2.8,5.7,6.6,9.7,10.5,12.4c5.3,3.6,13.6,5.2,21.4,3c7.8-2.2,12.3-7.2,15.2-14.1c2.5-6,2.8-16,3.3-18.3
		c0.5-2.3,2.5-2.5,2.5-2.5v-5.5C266.6,147.1,264.5,146.9,262.1,146.6z M188.9,178.3c-6.4,7.2-16.4,9.9-25.8,6.5
		c-9.3-3.4-11.8-11.6-13.1-16.9c-1.3-5.3-1.9-14.6,2.7-18.4c4.5-3.8,13.9-3.8,18.6-4c4.9-0.2,19.5,1.3,23.3,7.5
		C198.3,159.3,195.2,171.3,188.9,178.3z M259.7,167.8c-1.3,5.3-3.8,13.5-13.1,16.9s-19.4,0.8-25.8-6.5c-6.3-7-9.4-19-5.7-25.3
		c3.8-6.3,18.3-7.7,23.3-7.5c4.7,0.2,14.1,0.2,18.6,4C261.6,153.2,261.1,162.6,259.7,167.8z"/>
	<path class="st17" d="M259.7,167.8c-0.8,3-1.8,6.9-4.3,10.3c-1.8,2.5-4.2,4.7-7.8,6.2c-0.3,0.1-0.6,0.3-0.9,0.4
		c-9.3,3.4-19.4,0.8-25.8-6.5c-6.3-7-9.4-19-5.7-25.3c1.6-2.6,4.9-4.3,8.8-5.5c3.6-1.1,7.5-1.7,10.6-1.9c1.6-0.1,2.9-0.2,3.9-0.1
		c4.7,0.2,14.1,0.2,18.6,4C261.6,153.2,261.1,162.6,259.7,167.8z"/>
	<path class="st19" d="M187,180.2c-2.6,2.3-5.5,4-8.6,4.9l-23.6-37c2.9-1.5,6.8-2.1,10.3-2.3L187,180.2z"/>
	<path class="st19" d="M255.4,178.2c-1.8,2.5-4.2,4.7-7.8,6.2L224,147.5c3.6-1.1,7.5-1.7,10.6-1.9L255.4,178.2z"/>
	<g>
		<path class="st20" d="M181.9,201.3c1.8,0.7,3.8,1.1,5.7,1.6c1.9,0.4,3.8,0.8,5.7,1c3.8,0.5,7.6,0.8,11.4,0.8
			c3.8,0,7.6-0.3,11.4-0.8c1.9-0.3,3.8-0.6,5.7-1c1.9-0.4,3.8-0.9,5.7-1.6c-1.6,1.2-3.4,2.1-5.2,2.9c-1.8,0.8-3.8,1.5-5.7,2
			c-3.9,1-7.9,1.5-11.9,1.5c-4,0-8-0.5-11.9-1.5c-2-0.5-3.8-1.2-5.7-2C185.3,203.5,183.5,202.6,181.9,201.3z"/>
		<path class="st7" d="M194.3,210.6c2.2,0.1,4.1,0.3,5.8,0.4c1.7,0.2,3.2,0.3,4.7,0.3c1.4,0,2.9-0.1,4.7-0.3
			c1.7-0.2,3.5-0.3,5.8-0.4l0.2,0.3c-0.8,0.6-1.6,1.1-2.4,1.6c-0.8,0.4-1.7,0.9-2.6,1.2c-1.8,0.7-3.7,1.1-5.7,1.1
			c-2-0.1-3.9-0.4-5.7-1.1c-0.9-0.3-1.8-0.8-2.6-1.2c-0.8-0.5-1.6-1-2.4-1.6L194.3,210.6z"/>
	</g>
	
		<ellipse transform="matrix(0.2742 -0.9617 0.9617 0.2742 -61.2504 335.1297)" class="st11" cx="191.4" cy="208.1" rx="1.6" ry="4.6"/>
	<path class="st7" d="M185.5,241.1c-14.7-8.3-30.4-22.2-35.2-29.9c-2.2-3.6-8.3-25.1-11.1-50.2c-0.9-7.9-1.4-16.3-1.4-24.5l0,0
		c0,0,0.2,35.5,19.2,51.8c6.7,5.8,11.3,13.6,13.2,22.3C172.5,220.8,177,233.8,185.5,241.1z"/>
	<path class="st7" d="M224,241.1c14.7-8.3,30.4-22.2,35.2-29.9c2.2-3.6,8.3-25.1,11.1-50.2c0.9-7.9,1.4-16.3,1.4-24.5l0,0
		c0,0-0.2,35.5-19.2,51.8c-6.7,5.8-11.3,13.6-13.2,22.3C237,220.8,232.5,233.8,224,241.1z"/>
	<path class="st21" d="M263.3,181.9c-3.1,13.2-16.6,23.6-16.6,23.6c-2.3-11.1-21.4-9.9-28.8-13.7s-13.2,1.8-13.2,1.8
		s-5.9-5.6-13.3-1.8c-7.3,3.8-26.6,2.6-28.8,13.7c0,0-13.6-10.4-16.7-23.6c-2.8-12-4.5-24.1-7.4-24l6,58.4
		c1.6,15.3,11.1,28.7,25.2,35.2l27.7,12.6c4.7,2.2,10.2,2.2,14.9,0l27.4-12.6c14-6.4,23.6-19.8,25.2-35.2l6-58.3
		C267.9,156.7,266.3,169.4,263.3,181.9z M225.8,228.8c-9,7.9-14.6,1.5-12.9-3.3c1.7-4.8-3-4.6-8-4.6c-5.7,0-9.9-0.3-8.2,4.6
		c1.7,4.8-4,11.1-13,3.3c-9-7.9-13.3-13.9-9.3-15.4c4-1.5,30.5-0.5,30.5-9.4c0,8.9,26.5,7.9,30.4,9.4
		C239.2,214.9,234.8,221,225.8,228.8z"/>
	<path class="st21" d="M165.7,408.7H37.4c7.4-35.2,14.4-76.3,26.3-91.4c0.9-1.1,1.8-2.1,2.7-2.9c8.3-7.3,28.4-23,92.5-51.9
		c0.9-0.4,1.8-0.8,2.8-1.3L165.7,408.7z"/>
	<path class="st22" d="M89.4,408.7h-52c7.4-35.2,14.4-76.3,26.3-91.4C63.7,317.3,89.4,334.1,89.4,408.7z"/>
	<g>
		<path class="st21" d="M243.7,408.7H372c-7.4-35.2-14.4-76.3-26.3-91.4c-0.9-1.1-1.8-2.1-2.7-2.9c-8.3-7.3-28.4-23-92.5-51.9
			c-0.9-0.4-1.8-0.8-2.8-1.3L243.7,408.7z"/>
		<path class="st22" d="M320,408.7h52c-7.4-35.2-14.4-76.3-26.3-91.4C345.7,317.3,320,334.1,320,408.7z"/>
	</g>
	<path class="st22" d="M165.7,408.7H144l-13.2-46.9l22.2-26.9l-15.2-5.3l21-67.2c0.9-0.4,1.8-0.8,2.8-1.3L165.7,408.7z"/>
	<path class="st22" d="M243.7,408.7h21.7l13.2-46.9l-22.2-26.9l15.2-5.3l-21-67.2c-0.9-0.4-1.8-0.8-2.8-1.3L243.7,408.7z"/>
	<path class="st18" d="M142.8,147.1h-4.3c-0.4,0-0.8,0.3-0.8,0.8v4.1c0,0.4,0.3,0.8,0.8,0.8h4.3l2-2L142.8,147.1z"/>
	<path class="st18" d="M266.4,147.1h4.3c0.4,0,0.8,0.3,0.8,0.8v4.1c0,0.4-0.3,0.8-0.8,0.8h-4.3l-2-2L266.4,147.1z"/>
	<path class="st21" d="M204.8,50.5L204.8,50.5C204.8,50.5,204.7,50.5,204.8,50.5C204.7,50.5,204.7,50.5,204.8,50.5L204.8,50.5
		c-17.4,0.1-30.6,4.2-40.5,10.8c-10.7,8.6-8.9,15.4-8.9,15.4c-4.9-2.4-9.1,4.6-11.5,9.6c-10.3,23.4-8.1,52.3-5.9,67.7l0,0l1.6,12.7
		h3.2c-0.2-1-0.3-2-0.5-3c-1.1-8.8-0.2-17.6,2.3-26.1c4.7-15.7,11.9-35.7,19.8-43.8c6.8,6.3,19.8,12.2,50.9,17.2
		c41.2,6.7,55.9,46.9,55.9,46.9C275.1,134.7,284.5,50.8,204.8,50.5z"/>
</g>
</svg>
