<?xml version="1.0" encoding="utf-8"?>
<!-- Generator: Adobe Illustrator 22.0.1, SVG Export Plug-In . SVG Version: 6.00 Build 0)  -->
<svg version="1.1" id="Слой_1" xmlns="http://www.w3.org/2000/svg" xmlns:xlink="http://www.w3.org/1999/xlink" x="0px" y="0px"
	 viewBox="0 0 400 400" style="enable-background:new 0 0 400 400;" xml:space="preserve">
<style type="text/css">
	.st0{fill:#AED581;}
	.st1{fill:#FFFFFF;}
	.st2{fill:#EFBC4F;}
	.st3{fill:#CCA243;}
	.st4{fill:#5D5D5D;}
	.st5{fill:#8BC34A;}
</style>
<polygon class="st0" points="0,-4 0,192.6 0,404 197.1,404 400,404 400,235.7 400,178 400,-4 "/>
<g>
	<path class="st1" d="M191.2,311.8c1.8,0,3.5-1.1,4.2-2.9l77.7-202.5c13.2-30.7,42.1-20,43.4-19.5c2.3,0.9,4.9-0.3,5.8-2.6
		c0.9-2.3-0.3-4.9-2.6-5.8c-0.4-0.1-38.3-14.1-54.9,24.5l-0.1,0.2L187,305.6c-0.9,2.3,0.3,4.9,2.6,5.8
		C190.1,311.7,190.7,311.8,191.2,311.8z"/>
</g>
<g>
	<path class="st1" d="M191.2,315.5c1.8,0,3.6-1.1,4.2-3c0.9-2.3-0.3-4.9-2.7-5.8L51.3,254.9c-2.3-0.9-4.9,0.3-5.8,2.7
		c-0.9,2.3,0.3,4.9,2.7,5.8l141.4,51.9C190.2,315.4,190.7,315.5,191.2,315.5z"/>
</g>
<g>
	
		<rect x="52.8" y="133.3" transform="matrix(0.3476 -0.9377 0.9377 0.3476 -107.443 252.2228)" class="st2" width="149.4" height="140"/>
	
		<rect x="125.1" y="223" transform="matrix(0.3476 -0.9377 0.9377 0.3476 -85.4043 337.4877)" class="st3" width="149.4" height="14.2"/>
	<g>
		
			<rect x="53.4" y="197" transform="matrix(0.3477 -0.9376 0.9376 0.3477 -107.2801 252.8441)" class="st3" width="149.4" height="13"/>
	</g>
	<polygon class="st1" points="154,133.5 166.6,138.1 154.4,171.1 152.2,166.4 147.8,168.7 146.5,163.5 143.2,167 141.7,161.8 
		137.6,164.9 135.4,160.5 129.3,161.8 141.5,128.8 	"/>
</g>
<path class="st1" d="M159.6,311c0,17.4,14.1,31.6,31.6,31.6c17.5,0,31.6-14.1,31.6-31.6c0-17.5-14.1-31.6-31.6-31.6
	C173.7,279.4,159.6,293.6,159.6,311z"/>
<path class="st4" d="M173.9,311c0,9.6,7.7,17.3,17.3,17.3c9.6,0,17.3-7.7,17.3-17.3c0-9.6-7.7-17.3-17.3-17.3
	C181.6,293.7,173.9,301.5,173.9,311z"/>
<path class="st5" d="M281.8,81.5c0,4,3.3,7.3,7.3,7.3H320c4.1,0,7.3-3.3,7.3-7.3l0,0c0-4.1-3.3-7.3-7.3-7.3h-30.8
	C285.1,74.2,281.8,77.5,281.8,81.5L281.8,81.5z"/>
</svg>
