<?xml version="1.0" encoding="utf-8"?>
<!-- Generator: Adobe Illustrator 22.0.1, SVG Export Plug-In . SVG Version: 6.00 Build 0)  -->
<svg version="1.1" id="Слой_1" xmlns="http://www.w3.org/2000/svg" xmlns:xlink="http://www.w3.org/1999/xlink" x="0px" y="0px"
	 viewBox="0 0 400 400" style="enable-background:new 0 0 400 400;" xml:space="preserve">
<style type="text/css">
	.st0{fill:#4FC3F7;}
	.st1{fill:#48596B;}
	.st2{fill:#3C4957;}
	.st3{fill:#FFFFFF;}
	.st4{fill:#54667A;}
	.st5{fill:#FD5A37;}
</style>
<rect class="st0" width="400" height="400"/>
<g>
	<rect x="210.2" y="193.4" class="st1" width="10" height="206.1"/>
	<rect x="220.2" y="193.4" class="st2" width="6.2" height="206.1"/>
	<path class="st2" d="M143.6,125.7c-20.8,0-37.6,16.8-37.6,37.6v46.4h75.3v-46.4C181.2,142.5,164.4,125.7,143.6,125.7z"/>
	<path class="st1" d="M105.8,209.9l-24.5,24.5c-11,11,8.1,20.4,15.1,21.5c25.7,4,44.5-4.7,55.4-15.7l29.3-30.4L105.8,209.9z"/>
	<g>
		<path class="st3" d="M182,136.9l-77.5,15.8c15.5,6,38.1,14.7,43.8,16.9L182,136.9z"/>
		<path class="st3" d="M149.5,175.9l-49.4-20.1l10.3,50.7c0.2,1.1,1.3,1.8,2.4,1.6l83-16.9c1.1-0.2,1.8-1.3,1.6-2.4l-10.3-50.7
			L149.5,175.9z"/>
	</g>
	<path class="st4" d="M256.6,125.7h-113c20.8,0,37.6,16.8,37.6,37.6v46.4h67.5h45.5v-46.4C294.2,142.5,277.4,125.7,256.6,125.7z"/>
	<path class="st2" d="M223.8,153.3c0,4-3.2,7.2-7.2,7.2c-4,0-7.2-3.2-7.2-7.2c0-4,3.2-7.2,7.2-7.2
		C220.6,146.1,223.8,149.3,223.8,153.3z"/>
	<g>
		<rect x="215" y="63.1" class="st2" width="3.3" height="90.2"/>
	</g>
	<polygon class="st5" points="218.3,75.8 181.1,66.9 218.3,58 	"/>
</g>
</svg>
