<?xml version="1.0" encoding="utf-8"?>
<!-- Generator: Adobe Illustrator 22.0.1, SVG Export Plug-In . SVG Version: 6.00 Build 0)  -->
<svg version="1.1" id="Слой_1" xmlns="http://www.w3.org/2000/svg" xmlns:xlink="http://www.w3.org/1999/xlink" x="0px" y="0px"
	 viewBox="0 0 610 420" style="enable-background:new 0 0 610 420;" xml:space="preserve">
<style type="text/css">
	.st0{opacity:0.1;}
	.st1{fill:#F1F2F2;}
	.st2{fill:#58595B;}
	.st3{fill:#D1D3D4;}
	.st4{fill:#A7A9AC;}
	.st5{fill:#808285;}
	.st6{fill:#E2E2E2;}
	.st7{fill:#91C3D8;}
	.st8{fill:#E6E7E8;}
	.st9{fill:#4A9EBF;}
	.st10{fill:#B5E0D6;}
	.st11{fill:#FFFFFF;}
	.st12{fill:#BBBDBF;}
	.st13{fill:#BCBEC0;}
</style>
<g>
	<g class="st0">
		<g>
			<rect x="75.1" y="368" class="st1" width="114.3" height="44.7"/>
			<rect x="201.1" y="368" class="st1" width="114.3" height="44.7"/>
			<rect x="327.3" y="368" class="st1" width="114.3" height="44.7"/>
			<rect x="453.5" y="368" class="st1" width="114.3" height="44.7"/>
		</g>
		<g>
			<rect x="75.1" y="307.6" class="st1" width="114.3" height="44.7"/>
			<rect x="201.1" y="307.6" class="st1" width="114.3" height="44.7"/>
			<rect x="327.3" y="307.6" class="st1" width="114.3" height="44.7"/>
			<rect x="453.5" y="307.6" class="st1" width="114.3" height="44.7"/>
		</g>
		<g>
			<rect x="75.1" y="247.1" class="st1" width="114.3" height="44.7"/>
			<rect x="201.1" y="247.1" class="st1" width="114.3" height="44.7"/>
			<rect x="327.3" y="247.1" class="st1" width="114.3" height="44.7"/>
			<rect x="453.5" y="247.1" class="st1" width="114.3" height="44.7"/>
		</g>
		<g>
			<rect x="75.1" y="186.7" class="st1" width="114.3" height="44.7"/>
			<rect x="201.1" y="186.7" class="st1" width="114.3" height="44.7"/>
			<rect x="327.3" y="186.7" class="st1" width="114.3" height="44.7"/>
			<rect x="453.5" y="186.7" class="st1" width="114.3" height="44.7"/>
		</g>
		<g>
			<rect x="75.1" y="126.3" class="st1" width="114.3" height="44.7"/>
			<rect x="201.1" y="126.3" class="st1" width="114.3" height="44.7"/>
			<rect x="327.3" y="126.3" class="st1" width="114.3" height="44.7"/>
			<rect x="453.5" y="126.3" class="st1" width="114.3" height="44.7"/>
		</g>
		<g>
			<rect x="75.1" y="65.9" class="st1" width="114.3" height="44.7"/>
			<rect x="201.1" y="65.9" class="st1" width="114.3" height="44.7"/>
			<rect x="327.3" y="65.9" class="st1" width="114.3" height="44.7"/>
			<rect x="453.5" y="65.9" class="st1" width="114.3" height="44.7"/>
		</g>
	</g>
	<g>
		<path class="st2" d="M602.2,385.6V69.3c0-14-11.1-25.3-24.8-25.3H62.5c-13.7,0-24.9,11.4-24.9,25.3v316.2L602.2,385.6L602.2,385.6
			z"/>
		<path class="st3" d="M43.3,379.9V69.2c0-10.8,8.6-19.5,19.1-19.5h515c10.6,0,19.1,8.8,19.1,19.5v310.7H43.3z"/>
		<g id="XMLID_1872_">
			<path id="XMLID_1876_" class="st4" d="M28.9,385.6v8.9c0,10,8,18.2,17.8,18.2h546.4c9.8,0,17.8-8.2,17.8-18.2v-8.9H28.9z"/>
		</g>
		<rect id="XMLID_1869_" x="28.9" y="385.6" class="st5" width="582" height="8.9"/>
		<path id="XMLID_1868_" class="st2" d="M367.3,397.2h-94.8c-1.5,0-2.6-1.2-2.6-2.7l0,0c0-1.5,1.2-2.7,2.6-2.7h94.8
			c1.5,0,2.6,1.2,2.6,2.7l0,0C369.9,395.9,368.7,397.2,367.3,397.2z"/>
		<ellipse class="st2" cx="262" cy="394.5" rx="2.6" ry="2.7"/>
		<path class="st2" d="M248.9,394.5c0,1.5,1.2,2.7,2.6,2.7s2.6-1.2,2.6-2.7s-1.2-2.7-2.6-2.7C250.1,391.9,248.9,393,248.9,394.5z"/>
		<rect x="43.3" y="104.3" class="st6" width="553.3" height="275.6"/>
		<rect x="43.3" y="77" class="st7" width="553.3" height="27.3"/>
		<path class="st8" d="M50.3,94.7v-8.1c0-1.4,1-2.4,2.4-2.4h501.4c1.4,0,2.4,1.1,2.4,2.4v8.1c0,1.4-1,2.4-2.4,2.4H52.7
			C51.3,97.1,50.3,96.1,50.3,94.7z"/>
		<path class="st9" d="M144.8,49.7H62.3c-10.6,0-19.1,8.8-19.1,19.5V77H155V60.1C155.1,54.4,150.5,49.7,144.8,49.7z"/>
		<path class="st9" d="M552.3,88.9c-0.4-1.3-1.8-1.9-3-1.6c-1.3,0.4-1.9,1.8-1.5,3.1c0.4,1.3,1.8,1.9,3,1.6
			C552.1,91.5,552.8,90.1,552.3,88.9z"/>
		<path class="st9" d="M554.1,84.2h-10.4v13h10.4c1.4,0,2.4-1.1,2.4-2.4v-8.1C556.4,85.3,555.4,84.2,554.1,84.2z M552.3,94.1
			c0.1,0.4-0.1,0.8-0.4,0.9c-0.4,0.1-0.7-0.1-0.9-0.5l-0.5-1.7c-2.1,0.2-4.1-1.7-3.6-4.3c0.1-0.4,0.3-0.9,0.5-1.2
			c2-2.2,5-1.4,5.9,1.1c0.5,1.6-0.1,3.2-1.5,4L552.3,94.1z"/>
		<ellipse class="st8" cx="569.4" cy="90.6" rx="4.4" ry="4.5"/>
		<ellipse class="st8" cx="585.6" cy="90.6" rx="4.4" ry="4.5"/>
		<rect x="51" y="112.3" class="st10" width="81.9" height="20.2"/>
		<rect x="142.2" y="112.3" class="st10" width="81.9" height="20.2"/>
		<rect x="233.5" y="112.3" class="st10" width="81.9" height="20.2"/>
		<rect x="323.7" y="112.2" class="st10" width="82.2" height="20.3"/>
		<rect x="415.3" y="112.2" class="st10" width="82.2" height="20.3"/>
		<rect x="506.9" y="112.2" class="st10" width="82.2" height="20.3"/>
		<rect x="51" y="142.3" class="st10" width="81.9" height="20.2"/>
		<rect x="142.2" y="142.3" class="st3" width="81.9" height="20.2"/>
		<rect x="233.5" y="142.3" class="st3" width="81.9" height="20.2"/>
		<rect x="323.7" y="142.3" class="st3" width="82.2" height="20.3"/>
		<rect x="415.3" y="142.3" class="st3" width="82.2" height="20.3"/>
		<rect x="506.9" y="142.3" class="st3" width="82.2" height="20.3"/>
		<rect x="51" y="172.4" class="st10" width="81.9" height="20.2"/>
		<rect x="142.2" y="172.4" class="st3" width="81.9" height="20.2"/>
		<rect x="233.5" y="172.4" class="st3" width="81.9" height="20.2"/>
		<rect x="323.7" y="172.4" class="st3" width="82.2" height="20.3"/>
		<rect x="415.3" y="172.4" class="st3" width="82.2" height="20.3"/>
		<rect x="506.9" y="172.4" class="st3" width="82.2" height="20.3"/>
		<rect x="51" y="202.5" class="st10" width="81.9" height="20.2"/>
		<rect x="142.2" y="202.5" class="st3" width="81.9" height="20.2"/>
		<rect x="233.5" y="202.5" class="st3" width="81.9" height="20.2"/>
		<rect x="323.7" y="202.4" class="st3" width="82.2" height="20.3"/>
		<rect x="415.3" y="202.4" class="st3" width="82.2" height="20.3"/>
		<rect x="506.9" y="202.4" class="st3" width="82.2" height="20.3"/>
		<rect x="51" y="232.5" class="st10" width="81.9" height="20.2"/>
		<rect x="142.2" y="232.5" class="st3" width="81.9" height="20.2"/>
		<rect x="233.5" y="232.5" class="st3" width="81.9" height="20.2"/>
		<rect x="323.7" y="232.5" class="st3" width="82.2" height="20.3"/>
		<rect x="415.3" y="232.5" class="st3" width="82.2" height="20.3"/>
		<rect x="506.9" y="232.5" class="st3" width="82.2" height="20.3"/>
		<rect x="51" y="262.6" class="st10" width="81.9" height="20.2"/>
		<rect x="142.2" y="262.6" class="st3" width="81.9" height="20.2"/>
		<rect x="233.5" y="262.6" class="st3" width="81.9" height="20.2"/>
		<rect x="323.7" y="262.6" class="st3" width="82.2" height="20.3"/>
		<rect x="415.3" y="262.6" class="st3" width="82.2" height="20.3"/>
		<rect x="506.9" y="262.6" class="st3" width="82.2" height="20.3"/>
		<rect x="51" y="292.7" class="st10" width="81.9" height="20.2"/>
		<rect x="142.2" y="292.7" class="st3" width="81.9" height="20.2"/>
		<rect x="233.5" y="292.7" class="st3" width="81.9" height="20.2"/>
		<rect x="323.7" y="292.6" class="st3" width="82.2" height="20.3"/>
		<rect x="415.3" y="292.6" class="st3" width="82.2" height="20.3"/>
		<rect x="506.9" y="292.6" class="st3" width="82.2" height="20.3"/>
		<rect x="51" y="322.7" class="st10" width="81.9" height="20.2"/>
		<rect x="142.2" y="322.7" class="st3" width="81.9" height="20.2"/>
		<rect x="233.5" y="322.7" class="st3" width="81.9" height="20.2"/>
		<rect x="323.7" y="322.7" class="st3" width="82.2" height="20.3"/>
		<rect x="415.3" y="322.7" class="st3" width="82.2" height="20.3"/>
		<rect x="506.9" y="322.7" class="st3" width="82.2" height="20.3"/>
		<rect x="51" y="352.8" class="st10" width="81.9" height="20.2"/>
		<rect x="142.2" y="352.8" class="st3" width="81.9" height="20.2"/>
		<rect x="233.5" y="352.8" class="st3" width="81.9" height="20.2"/>
		<rect x="323.7" y="352.8" class="st3" width="82.2" height="20.3"/>
		<rect x="415.3" y="352.8" class="st3" width="82.2" height="20.3"/>
		<rect x="506.9" y="352.8" class="st3" width="82.2" height="20.3"/>
	</g>
	<g>
		<polygon id="XMLID_49_" class="st11" points="418.8,204.3 370.5,204.3 418.8,155 		"/>
		<g id="XMLID_47_">
			<polygon id="XMLID_48_" class="st1" points="418.8,155 418.8,204.3 370.5,204.3 370.5,418 562,418 562,155 			"/>
		</g>
		<rect id="XMLID_38_" x="493.9" y="178.9" class="st12" width="61.6" height="2.2"/>
		<rect id="XMLID_35_" x="463.9" y="184.1" class="st12" width="91.6" height="2.2"/>
		<rect id="XMLID_34_" x="463.9" y="189.4" class="st12" width="91.6" height="2.2"/>
		<rect id="XMLID_32_" x="463.9" y="194.5" class="st12" width="91.6" height="2.2"/>
		<rect id="XMLID_57_" x="376.9" y="396.3" class="st12" width="61.6" height="2.2"/>
		<rect id="XMLID_54_" x="376.9" y="401.6" class="st12" width="91.6" height="2.2"/>
		<rect x="376.9" y="372.5" class="st7" width="41.4" height="11"/>
		<rect x="422.6" y="372.5" class="st13" width="41.4" height="11"/>
		<rect x="468.3" y="372.5" class="st13" width="41.4" height="11"/>
		<rect x="514" y="372.5" class="st13" width="41.4" height="11"/>
		<rect x="376.9" y="356.5" class="st7" width="41.4" height="11"/>
		<rect x="422.6" y="356.5" class="st13" width="41.4" height="11"/>
		<rect x="468.3" y="356.5" class="st13" width="41.4" height="11"/>
		<rect x="514" y="356.5" class="st13" width="41.4" height="11"/>
		<rect x="376.9" y="340.5" class="st7" width="41.4" height="11"/>
		<rect x="422.6" y="340.5" class="st13" width="41.4" height="11"/>
		<rect x="468.3" y="340.5" class="st13" width="41.4" height="11"/>
		<rect x="514" y="340.5" class="st13" width="41.4" height="11"/>
		<rect x="376.9" y="324.6" class="st7" width="41.4" height="11"/>
		<rect x="422.6" y="324.6" class="st13" width="41.4" height="11"/>
		<rect x="468.3" y="324.6" class="st13" width="41.4" height="11"/>
		<rect x="514" y="324.6" class="st13" width="41.4" height="11"/>
		<rect x="376.9" y="308.6" class="st7" width="41.4" height="11"/>
		<rect x="422.6" y="308.6" class="st13" width="41.4" height="11"/>
		<rect x="468.3" y="308.6" class="st13" width="41.4" height="11"/>
		<rect x="514" y="308.6" class="st13" width="41.4" height="11"/>
		<rect x="376.9" y="292.5" class="st7" width="41.4" height="11"/>
		<rect x="422.6" y="292.5" class="st13" width="41.4" height="11"/>
		<rect x="468.3" y="292.5" class="st13" width="41.4" height="11"/>
		<rect x="514" y="292.5" class="st13" width="41.4" height="11"/>
		<rect x="376.9" y="276.5" class="st7" width="41.4" height="11"/>
		<rect x="422.6" y="276.5" class="st13" width="41.4" height="11"/>
		<rect x="468.3" y="276.5" class="st13" width="41.4" height="11"/>
		<rect x="514" y="276.5" class="st13" width="41.4" height="11"/>
		<rect x="376.9" y="260.6" class="st7" width="41.4" height="11"/>
		<rect x="422.6" y="260.6" class="st13" width="41.4" height="11"/>
		<rect x="468.3" y="260.6" class="st13" width="41.4" height="11"/>
		<rect x="514" y="260.6" class="st13" width="41.4" height="11"/>
		<rect x="376.9" y="244.6" class="st7" width="41.4" height="11"/>
		<rect x="422.6" y="244.6" class="st13" width="41.4" height="11"/>
		<rect x="468.3" y="244.6" class="st13" width="41.4" height="11"/>
		<rect x="514" y="244.6" class="st13" width="41.4" height="11"/>
		<rect x="376.9" y="228.5" class="st7" width="41.4" height="11"/>
		<rect x="422.6" y="228.5" class="st13" width="41.4" height="11"/>
		<rect x="468.3" y="228.5" class="st13" width="41.4" height="11"/>
		<rect x="514" y="228.5" class="st13" width="41.4" height="11"/>
		<rect x="376.9" y="212.5" class="st7" width="41.4" height="11"/>
		<rect x="422.6" y="212.5" class="st13" width="41.4" height="11"/>
		<rect x="468.3" y="212.5" class="st13" width="41.4" height="11"/>
		<rect x="514" y="212.5" class="st13" width="41.4" height="11"/>
		<rect x="418.8" y="155" class="st7" width="143.1" height="12.6"/>
	</g>
	<g>
		<path class="st1" d="M351.3,345H231.9c-6.8,0-12.2-5.6-12.2-12.6V210.6c0-6.9,5.5-12.6,12.2-12.6h119.4c6.8,0,12.2,5.6,12.2,12.6
			v121.9C363.6,339.5,358.1,345,351.3,345z"/>
		<g>
			<path id="XMLID_108_" class="st13" d="M293.4,227.8v51.5H243c0,28.4,22.6,51.5,50.4,51.5c27.8,0,50.4-23.1,50.4-51.5
				C343.9,250.8,321.3,227.8,293.4,227.8z"/>
			<path id="XMLID_110_" class="st7" d="M239.3,275.6h50.4l-35.7-36.4C245,248.5,239.3,261.3,239.3,275.6z"/>
			<g id="XMLID_88_">
				<path id="XMLID_111_" class="st9" d="M250.5,228.8l39.2,40.1v-56.8C274.5,212.3,260.6,218.6,250.5,228.8z"/>
				<path id="XMLID_114_" class="st9" d="M250.4,228.9C250.5,228.9,250.5,228.8,250.4,228.9L250.4,228.9
					C250.5,228.8,250.5,228.9,250.4,228.9z"/>
			</g>
		</g>
	</g>
	<g>
		<path class="st1" d="M201.2,368.1h-85.6c-4.8,0-8.8-4-8.8-9v-87.4c0-5,4-9,8.8-9h85.6c4.8,0,8.8,4,8.8,9v87.4
			C210,364.1,206.2,368.1,201.2,368.1z"/>
		<g>
			<rect id="XMLID_281_" x="186.5" y="275.6" class="st9" width="13.6" height="80.1"/>
			<rect id="XMLID_280_" x="163.3" y="293.8" class="st7" width="13.6" height="61.7"/>
			<rect id="XMLID_279_" x="140" y="312.2" class="st9" width="13.6" height="43.3"/>
			<rect id="XMLID_278_" x="116.9" y="284.8" class="st7" width="13.6" height="70.8"/>
		</g>
	</g>
	<path class="st1" d="M89.9,324.8H12c-4.4,0-8.1-3.7-8.1-8.2v-79.6c0-4.5,3.6-8.2,8.1-8.2h77.9c4.4,0,8.1,3.7,8.1,8.2v79.6
		C98,321.1,94.4,324.8,89.9,324.8z"/>
	<path class="st9" d="M66.8,258.8l9.3-9.5c-5.8-6.1-13.8-9.9-22.7-9.9v13.5C58.6,252.9,63.5,255.1,66.8,258.8z"/>
	<g>
		<path class="st7" d="M84.8,273.4c-0.7-7.9-4.2-15.1-9.2-20.6l-10.1,10.3l0,0c3.2,3.6,5.2,8.4,5.2,13.6c0,11.1-8.8,20.1-19.7,20.1
			s-19.7-9.1-19.7-20.1c0-11.1,8.8-20.1,19.7-20.1v-14.6h-3.3v0.2C30.5,244.1,17,258.9,17,276.9c0,19.2,15.3,34.8,34,34.8
			c17.6,0,32.1-13.7,33.9-31.3h0.2V277v-3.4h-0.3V273.4z"/>
		<path class="st7" d="M64.8,262.5C64.7,262.5,64.7,262.5,64.8,262.5C64.7,262.5,64.7,262.5,64.8,262.5z"/>
	</g>
</g>
</svg>
